<mxfile host="Electron" agent="Mozilla/5.0 (Macintosh; Intel Mac OS X 10_15_7) AppleWebKit/537.36 (KHTML, like Gecko) draw.io/28.0.6 Chrome/138.0.7204.100 Electron/37.2.3 Safari/537.36" version="28.0.6" pages="2">
  <diagram id="M0GDIwwjPEUFBGCJDxXO" name="Explode-Example">
    <mxGraphModel dx="1234" dy="822" grid="1" gridSize="10" guides="1" tooltips="1" connect="1" arrows="1" fold="1" page="1" pageScale="1" pageWidth="1169" pageHeight="827" math="0" shadow="0">
      <root>
        <mxCell id="0" />
        <mxCell id="1" parent="0" />
        <mxCell id="ypLOqI9C_wn-hdyB5M15-43" value="" style="group" vertex="1" connectable="0" parent="1">
          <mxGeometry x="70" y="301" width="360" height="265.86" as="geometry" />
        </mxCell>
        <mxCell id="ypLOqI9C_wn-hdyB5M15-1" value="" style="endArrow=classic;html=1;rounded=0;exitX=0;exitY=1;exitDx=0;exitDy=0;entryX=1;entryY=0;entryDx=0;entryDy=0;" edge="1" parent="ypLOqI9C_wn-hdyB5M15-43" source="ypLOqI9C_wn-hdyB5M15-7">
          <mxGeometry width="50" height="50" relative="1" as="geometry">
            <mxPoint x="83" y="175.86" as="sourcePoint" />
            <mxPoint x="37.07106781186553" y="208.78893218813448" as="targetPoint" />
          </mxGeometry>
        </mxCell>
        <mxCell id="ypLOqI9C_wn-hdyB5M15-7" value="" style="ellipse;whiteSpace=wrap;html=1;aspect=fixed;" vertex="1" parent="ypLOqI9C_wn-hdyB5M15-43">
          <mxGeometry x="80" y="155.86" width="20" height="20" as="geometry" />
        </mxCell>
        <mxCell id="ypLOqI9C_wn-hdyB5M15-8" value="" style="endArrow=classic;html=1;rounded=0;exitX=0;exitY=1;exitDx=0;exitDy=0;entryX=1;entryY=0;entryDx=0;entryDy=0;" edge="1" parent="ypLOqI9C_wn-hdyB5M15-43" source="ypLOqI9C_wn-hdyB5M15-9" target="ypLOqI9C_wn-hdyB5M15-7">
          <mxGeometry width="50" height="50" relative="1" as="geometry">
            <mxPoint x="145.92893218813447" y="125.86000000000001" as="sourcePoint" />
            <mxPoint x="100" y="158.78893218813448" as="targetPoint" />
          </mxGeometry>
        </mxCell>
        <mxCell id="ypLOqI9C_wn-hdyB5M15-9" value="" style="ellipse;whiteSpace=wrap;html=1;aspect=fixed;" vertex="1" parent="ypLOqI9C_wn-hdyB5M15-43">
          <mxGeometry x="142.92893218813447" y="105.86000000000001" width="20" height="20" as="geometry" />
        </mxCell>
        <mxCell id="ypLOqI9C_wn-hdyB5M15-10" value="" style="endArrow=classic;html=1;rounded=0;exitX=0;exitY=1;exitDx=0;exitDy=0;entryX=1;entryY=0;entryDx=0;entryDy=0;" edge="1" parent="ypLOqI9C_wn-hdyB5M15-43" source="ypLOqI9C_wn-hdyB5M15-11" target="ypLOqI9C_wn-hdyB5M15-9">
          <mxGeometry width="50" height="50" relative="1" as="geometry">
            <mxPoint x="208.85893218813447" y="72.93000000000006" as="sourcePoint" />
            <mxPoint x="162.93" y="105.85893218813453" as="targetPoint" />
          </mxGeometry>
        </mxCell>
        <mxCell id="ypLOqI9C_wn-hdyB5M15-11" value="" style="ellipse;whiteSpace=wrap;html=1;aspect=fixed;" vertex="1" parent="ypLOqI9C_wn-hdyB5M15-43">
          <mxGeometry x="205.85893218813447" y="52.930000000000064" width="20" height="20" as="geometry" />
        </mxCell>
        <mxCell id="ypLOqI9C_wn-hdyB5M15-12" value="" style="endArrow=classic;html=1;rounded=0;exitX=0;exitY=1;exitDx=0;exitDy=0;entryX=1;entryY=0;entryDx=0;entryDy=0;" edge="1" parent="ypLOqI9C_wn-hdyB5M15-43" source="ypLOqI9C_wn-hdyB5M15-13" target="ypLOqI9C_wn-hdyB5M15-11">
          <mxGeometry width="50" height="50" relative="1" as="geometry">
            <mxPoint x="271.7889321881345" y="20" as="sourcePoint" />
            <mxPoint x="225.86" y="52.92893218813447" as="targetPoint" />
          </mxGeometry>
        </mxCell>
        <mxCell id="ypLOqI9C_wn-hdyB5M15-13" value="" style="ellipse;whiteSpace=wrap;html=1;aspect=fixed;" vertex="1" parent="ypLOqI9C_wn-hdyB5M15-43">
          <mxGeometry x="268.7889321881345" width="20" height="20" as="geometry" />
        </mxCell>
        <mxCell id="ypLOqI9C_wn-hdyB5M15-14" value="" style="group" vertex="1" connectable="0" parent="ypLOqI9C_wn-hdyB5M15-43">
          <mxGeometry y="205.86" width="60" height="60" as="geometry" />
        </mxCell>
        <mxCell id="ypLOqI9C_wn-hdyB5M15-2" value="" style="ellipse;whiteSpace=wrap;html=1;aspect=fixed;container=0;" vertex="1" parent="ypLOqI9C_wn-hdyB5M15-14">
          <mxGeometry x="20" width="20" height="20" as="geometry" />
        </mxCell>
        <mxCell id="ypLOqI9C_wn-hdyB5M15-3" value="1" style="ellipse;whiteSpace=wrap;html=1;aspect=fixed;container=0;" vertex="1" parent="ypLOqI9C_wn-hdyB5M15-14">
          <mxGeometry y="40" width="20" height="20" as="geometry" />
        </mxCell>
        <mxCell id="ypLOqI9C_wn-hdyB5M15-4" value="1" style="ellipse;whiteSpace=wrap;html=1;aspect=fixed;container=0;" vertex="1" parent="ypLOqI9C_wn-hdyB5M15-14">
          <mxGeometry x="40" y="40" width="20" height="20" as="geometry" />
        </mxCell>
        <mxCell id="ypLOqI9C_wn-hdyB5M15-5" value="" style="endArrow=classic;html=1;rounded=0;entryX=0.5;entryY=0;entryDx=0;entryDy=0;exitX=0;exitY=1;exitDx=0;exitDy=0;" edge="1" parent="ypLOqI9C_wn-hdyB5M15-14" source="ypLOqI9C_wn-hdyB5M15-2" target="ypLOqI9C_wn-hdyB5M15-3">
          <mxGeometry width="50" height="50" relative="1" as="geometry">
            <mxPoint x="20" y="10" as="sourcePoint" />
            <mxPoint x="140" y="223" as="targetPoint" />
          </mxGeometry>
        </mxCell>
        <mxCell id="ypLOqI9C_wn-hdyB5M15-6" value="" style="endArrow=classic;html=1;rounded=0;entryX=0.5;entryY=0;entryDx=0;entryDy=0;exitX=1;exitY=1;exitDx=0;exitDy=0;" edge="1" parent="ypLOqI9C_wn-hdyB5M15-14" source="ypLOqI9C_wn-hdyB5M15-2" target="ypLOqI9C_wn-hdyB5M15-4">
          <mxGeometry width="50" height="50" relative="1" as="geometry">
            <mxPoint x="41" y="12" as="sourcePoint" />
            <mxPoint x="70" y="83" as="targetPoint" />
          </mxGeometry>
        </mxCell>
        <mxCell id="ypLOqI9C_wn-hdyB5M15-15" value="" style="group" vertex="1" connectable="0" parent="ypLOqI9C_wn-hdyB5M15-43">
          <mxGeometry x="100" y="205.86" width="60" height="60" as="geometry" />
        </mxCell>
        <mxCell id="ypLOqI9C_wn-hdyB5M15-16" value="" style="ellipse;whiteSpace=wrap;html=1;aspect=fixed;container=0;" vertex="1" parent="ypLOqI9C_wn-hdyB5M15-15">
          <mxGeometry x="20" width="20" height="20" as="geometry" />
        </mxCell>
        <mxCell id="ypLOqI9C_wn-hdyB5M15-17" value="2" style="ellipse;whiteSpace=wrap;html=1;aspect=fixed;container=0;" vertex="1" parent="ypLOqI9C_wn-hdyB5M15-15">
          <mxGeometry y="40" width="20" height="20" as="geometry" />
        </mxCell>
        <mxCell id="ypLOqI9C_wn-hdyB5M15-18" value="2" style="ellipse;whiteSpace=wrap;html=1;aspect=fixed;container=0;" vertex="1" parent="ypLOqI9C_wn-hdyB5M15-15">
          <mxGeometry x="40" y="40" width="20" height="20" as="geometry" />
        </mxCell>
        <mxCell id="ypLOqI9C_wn-hdyB5M15-19" value="" style="endArrow=classic;html=1;rounded=0;entryX=0.5;entryY=0;entryDx=0;entryDy=0;exitX=0;exitY=1;exitDx=0;exitDy=0;" edge="1" parent="ypLOqI9C_wn-hdyB5M15-15" source="ypLOqI9C_wn-hdyB5M15-16" target="ypLOqI9C_wn-hdyB5M15-17">
          <mxGeometry width="50" height="50" relative="1" as="geometry">
            <mxPoint x="20" y="10" as="sourcePoint" />
            <mxPoint x="140" y="223" as="targetPoint" />
          </mxGeometry>
        </mxCell>
        <mxCell id="ypLOqI9C_wn-hdyB5M15-20" value="" style="endArrow=classic;html=1;rounded=0;entryX=0.5;entryY=0;entryDx=0;entryDy=0;exitX=1;exitY=1;exitDx=0;exitDy=0;" edge="1" parent="ypLOqI9C_wn-hdyB5M15-15" source="ypLOqI9C_wn-hdyB5M15-16" target="ypLOqI9C_wn-hdyB5M15-18">
          <mxGeometry width="50" height="50" relative="1" as="geometry">
            <mxPoint x="41" y="12" as="sourcePoint" />
            <mxPoint x="70" y="83" as="targetPoint" />
          </mxGeometry>
        </mxCell>
        <mxCell id="ypLOqI9C_wn-hdyB5M15-21" value="" style="group" vertex="1" connectable="0" parent="ypLOqI9C_wn-hdyB5M15-43">
          <mxGeometry x="170" y="155.86" width="60" height="60" as="geometry" />
        </mxCell>
        <mxCell id="ypLOqI9C_wn-hdyB5M15-22" value="" style="ellipse;whiteSpace=wrap;html=1;aspect=fixed;container=0;" vertex="1" parent="ypLOqI9C_wn-hdyB5M15-21">
          <mxGeometry x="20" width="20" height="20" as="geometry" />
        </mxCell>
        <mxCell id="ypLOqI9C_wn-hdyB5M15-23" value="3" style="ellipse;whiteSpace=wrap;html=1;aspect=fixed;container=0;" vertex="1" parent="ypLOqI9C_wn-hdyB5M15-21">
          <mxGeometry y="40" width="20" height="20" as="geometry" />
        </mxCell>
        <mxCell id="ypLOqI9C_wn-hdyB5M15-24" value="3" style="ellipse;whiteSpace=wrap;html=1;aspect=fixed;container=0;" vertex="1" parent="ypLOqI9C_wn-hdyB5M15-21">
          <mxGeometry x="40" y="40" width="20" height="20" as="geometry" />
        </mxCell>
        <mxCell id="ypLOqI9C_wn-hdyB5M15-25" value="" style="endArrow=classic;html=1;rounded=0;entryX=0.5;entryY=0;entryDx=0;entryDy=0;exitX=0;exitY=1;exitDx=0;exitDy=0;" edge="1" parent="ypLOqI9C_wn-hdyB5M15-21" source="ypLOqI9C_wn-hdyB5M15-22" target="ypLOqI9C_wn-hdyB5M15-23">
          <mxGeometry width="50" height="50" relative="1" as="geometry">
            <mxPoint x="20" y="10" as="sourcePoint" />
            <mxPoint x="140" y="223" as="targetPoint" />
          </mxGeometry>
        </mxCell>
        <mxCell id="ypLOqI9C_wn-hdyB5M15-26" value="" style="endArrow=classic;html=1;rounded=0;entryX=0.5;entryY=0;entryDx=0;entryDy=0;exitX=1;exitY=1;exitDx=0;exitDy=0;" edge="1" parent="ypLOqI9C_wn-hdyB5M15-21" source="ypLOqI9C_wn-hdyB5M15-22" target="ypLOqI9C_wn-hdyB5M15-24">
          <mxGeometry width="50" height="50" relative="1" as="geometry">
            <mxPoint x="41" y="12" as="sourcePoint" />
            <mxPoint x="70" y="83" as="targetPoint" />
          </mxGeometry>
        </mxCell>
        <mxCell id="ypLOqI9C_wn-hdyB5M15-27" value="" style="group" vertex="1" connectable="0" parent="ypLOqI9C_wn-hdyB5M15-43">
          <mxGeometry x="230" y="105.86000000000001" width="60" height="60" as="geometry" />
        </mxCell>
        <mxCell id="ypLOqI9C_wn-hdyB5M15-28" value="" style="ellipse;whiteSpace=wrap;html=1;aspect=fixed;container=0;" vertex="1" parent="ypLOqI9C_wn-hdyB5M15-27">
          <mxGeometry x="20" width="20" height="20" as="geometry" />
        </mxCell>
        <mxCell id="ypLOqI9C_wn-hdyB5M15-29" value="4" style="ellipse;whiteSpace=wrap;html=1;aspect=fixed;container=0;" vertex="1" parent="ypLOqI9C_wn-hdyB5M15-27">
          <mxGeometry y="40" width="20" height="20" as="geometry" />
        </mxCell>
        <mxCell id="ypLOqI9C_wn-hdyB5M15-30" value="4" style="ellipse;whiteSpace=wrap;html=1;aspect=fixed;container=0;" vertex="1" parent="ypLOqI9C_wn-hdyB5M15-27">
          <mxGeometry x="40" y="40" width="20" height="20" as="geometry" />
        </mxCell>
        <mxCell id="ypLOqI9C_wn-hdyB5M15-31" value="" style="endArrow=classic;html=1;rounded=0;entryX=0.5;entryY=0;entryDx=0;entryDy=0;exitX=0;exitY=1;exitDx=0;exitDy=0;" edge="1" parent="ypLOqI9C_wn-hdyB5M15-27" source="ypLOqI9C_wn-hdyB5M15-28" target="ypLOqI9C_wn-hdyB5M15-29">
          <mxGeometry width="50" height="50" relative="1" as="geometry">
            <mxPoint x="20" y="10" as="sourcePoint" />
            <mxPoint x="140" y="223" as="targetPoint" />
          </mxGeometry>
        </mxCell>
        <mxCell id="ypLOqI9C_wn-hdyB5M15-32" value="" style="endArrow=classic;html=1;rounded=0;entryX=0.5;entryY=0;entryDx=0;entryDy=0;exitX=1;exitY=1;exitDx=0;exitDy=0;" edge="1" parent="ypLOqI9C_wn-hdyB5M15-27" source="ypLOqI9C_wn-hdyB5M15-28" target="ypLOqI9C_wn-hdyB5M15-30">
          <mxGeometry width="50" height="50" relative="1" as="geometry">
            <mxPoint x="41" y="12" as="sourcePoint" />
            <mxPoint x="70" y="83" as="targetPoint" />
          </mxGeometry>
        </mxCell>
        <mxCell id="ypLOqI9C_wn-hdyB5M15-33" value="" style="group" vertex="1" connectable="0" parent="ypLOqI9C_wn-hdyB5M15-43">
          <mxGeometry x="300" y="45.860000000000014" width="60" height="60" as="geometry" />
        </mxCell>
        <mxCell id="ypLOqI9C_wn-hdyB5M15-34" value="" style="ellipse;whiteSpace=wrap;html=1;aspect=fixed;container=0;" vertex="1" parent="ypLOqI9C_wn-hdyB5M15-33">
          <mxGeometry x="20" width="20" height="20" as="geometry" />
        </mxCell>
        <mxCell id="ypLOqI9C_wn-hdyB5M15-35" value="5" style="ellipse;whiteSpace=wrap;html=1;aspect=fixed;container=0;" vertex="1" parent="ypLOqI9C_wn-hdyB5M15-33">
          <mxGeometry y="40" width="20" height="20" as="geometry" />
        </mxCell>
        <mxCell id="ypLOqI9C_wn-hdyB5M15-36" value="5" style="ellipse;whiteSpace=wrap;html=1;aspect=fixed;container=0;" vertex="1" parent="ypLOqI9C_wn-hdyB5M15-33">
          <mxGeometry x="40" y="40" width="20" height="20" as="geometry" />
        </mxCell>
        <mxCell id="ypLOqI9C_wn-hdyB5M15-37" value="" style="endArrow=classic;html=1;rounded=0;entryX=0.5;entryY=0;entryDx=0;entryDy=0;exitX=0;exitY=1;exitDx=0;exitDy=0;" edge="1" parent="ypLOqI9C_wn-hdyB5M15-33" source="ypLOqI9C_wn-hdyB5M15-34" target="ypLOqI9C_wn-hdyB5M15-35">
          <mxGeometry width="50" height="50" relative="1" as="geometry">
            <mxPoint x="20" y="10" as="sourcePoint" />
            <mxPoint x="140" y="223" as="targetPoint" />
          </mxGeometry>
        </mxCell>
        <mxCell id="ypLOqI9C_wn-hdyB5M15-38" value="" style="endArrow=classic;html=1;rounded=0;entryX=0.5;entryY=0;entryDx=0;entryDy=0;exitX=1;exitY=1;exitDx=0;exitDy=0;" edge="1" parent="ypLOqI9C_wn-hdyB5M15-33" source="ypLOqI9C_wn-hdyB5M15-34" target="ypLOqI9C_wn-hdyB5M15-36">
          <mxGeometry width="50" height="50" relative="1" as="geometry">
            <mxPoint x="41" y="12" as="sourcePoint" />
            <mxPoint x="70" y="83" as="targetPoint" />
          </mxGeometry>
        </mxCell>
        <mxCell id="ypLOqI9C_wn-hdyB5M15-39" value="" style="endArrow=classic;html=1;rounded=0;exitX=1;exitY=1;exitDx=0;exitDy=0;entryX=0;entryY=0;entryDx=0;entryDy=0;" edge="1" parent="ypLOqI9C_wn-hdyB5M15-43" source="ypLOqI9C_wn-hdyB5M15-7" target="ypLOqI9C_wn-hdyB5M15-16">
          <mxGeometry width="50" height="50" relative="1" as="geometry">
            <mxPoint x="190" y="305.86" as="sourcePoint" />
            <mxPoint x="240" y="255.86" as="targetPoint" />
          </mxGeometry>
        </mxCell>
        <mxCell id="ypLOqI9C_wn-hdyB5M15-40" value="" style="endArrow=classic;html=1;rounded=0;exitX=1;exitY=1;exitDx=0;exitDy=0;entryX=0;entryY=0;entryDx=0;entryDy=0;" edge="1" parent="ypLOqI9C_wn-hdyB5M15-43" source="ypLOqI9C_wn-hdyB5M15-9" target="ypLOqI9C_wn-hdyB5M15-22">
          <mxGeometry width="50" height="50" relative="1" as="geometry">
            <mxPoint x="120" y="195.86" as="sourcePoint" />
            <mxPoint x="170" y="145.86" as="targetPoint" />
          </mxGeometry>
        </mxCell>
        <mxCell id="ypLOqI9C_wn-hdyB5M15-41" value="" style="endArrow=classic;html=1;rounded=0;exitX=1;exitY=1;exitDx=0;exitDy=0;entryX=0;entryY=0;entryDx=0;entryDy=0;" edge="1" parent="ypLOqI9C_wn-hdyB5M15-43" source="ypLOqI9C_wn-hdyB5M15-11" target="ypLOqI9C_wn-hdyB5M15-28">
          <mxGeometry width="50" height="50" relative="1" as="geometry">
            <mxPoint x="220" y="115.86000000000001" as="sourcePoint" />
            <mxPoint x="253" y="151.86" as="targetPoint" />
          </mxGeometry>
        </mxCell>
        <mxCell id="ypLOqI9C_wn-hdyB5M15-42" value="" style="endArrow=classic;html=1;rounded=0;exitX=1;exitY=1;exitDx=0;exitDy=0;entryX=0;entryY=0;entryDx=0;entryDy=0;" edge="1" parent="ypLOqI9C_wn-hdyB5M15-43" source="ypLOqI9C_wn-hdyB5M15-13" target="ypLOqI9C_wn-hdyB5M15-34">
          <mxGeometry width="50" height="50" relative="1" as="geometry">
            <mxPoint x="280" y="75.86000000000001" as="sourcePoint" />
            <mxPoint x="310" y="114.86000000000001" as="targetPoint" />
          </mxGeometry>
        </mxCell>
        <mxCell id="ypLOqI9C_wn-hdyB5M15-45" value="" style="endArrow=classic;html=1;rounded=0;exitX=0;exitY=1;exitDx=0;exitDy=0;entryX=1;entryY=0;entryDx=0;entryDy=0;" edge="1" parent="1" source="ypLOqI9C_wn-hdyB5M15-46">
          <mxGeometry width="50" height="50" relative="1" as="geometry">
            <mxPoint x="503" y="476.86" as="sourcePoint" />
            <mxPoint x="457.07106781186553" y="509.7889321881345" as="targetPoint" />
          </mxGeometry>
        </mxCell>
        <mxCell id="ypLOqI9C_wn-hdyB5M15-46" value="" style="ellipse;whiteSpace=wrap;html=1;aspect=fixed;" vertex="1" parent="1">
          <mxGeometry x="500" y="456.86" width="20" height="20" as="geometry" />
        </mxCell>
        <mxCell id="ypLOqI9C_wn-hdyB5M15-47" value="" style="endArrow=classic;html=1;rounded=0;exitX=0;exitY=1;exitDx=0;exitDy=0;entryX=1;entryY=0;entryDx=0;entryDy=0;" edge="1" parent="1" source="ypLOqI9C_wn-hdyB5M15-48" target="ypLOqI9C_wn-hdyB5M15-46">
          <mxGeometry width="50" height="50" relative="1" as="geometry">
            <mxPoint x="565.9289321881345" y="426.86" as="sourcePoint" />
            <mxPoint x="520" y="459.7889321881345" as="targetPoint" />
          </mxGeometry>
        </mxCell>
        <mxCell id="ypLOqI9C_wn-hdyB5M15-48" value="" style="ellipse;whiteSpace=wrap;html=1;aspect=fixed;" vertex="1" parent="1">
          <mxGeometry x="562.9289321881345" y="406.86" width="20" height="20" as="geometry" />
        </mxCell>
        <mxCell id="ypLOqI9C_wn-hdyB5M15-49" value="" style="endArrow=classic;html=1;rounded=0;exitX=0;exitY=1;exitDx=0;exitDy=0;entryX=1;entryY=0;entryDx=0;entryDy=0;" edge="1" parent="1" source="ypLOqI9C_wn-hdyB5M15-50" target="ypLOqI9C_wn-hdyB5M15-48">
          <mxGeometry width="50" height="50" relative="1" as="geometry">
            <mxPoint x="628.8589321881345" y="373.93000000000006" as="sourcePoint" />
            <mxPoint x="582.9300000000001" y="406.85893218813453" as="targetPoint" />
          </mxGeometry>
        </mxCell>
        <mxCell id="ypLOqI9C_wn-hdyB5M15-50" value="" style="ellipse;whiteSpace=wrap;html=1;aspect=fixed;" vertex="1" parent="1">
          <mxGeometry x="625.8589321881345" y="353.93000000000006" width="20" height="20" as="geometry" />
        </mxCell>
        <mxCell id="ypLOqI9C_wn-hdyB5M15-51" value="" style="endArrow=classic;html=1;rounded=0;exitX=0;exitY=1;exitDx=0;exitDy=0;entryX=1;entryY=0;entryDx=0;entryDy=0;" edge="1" parent="1" source="ypLOqI9C_wn-hdyB5M15-52" target="ypLOqI9C_wn-hdyB5M15-50">
          <mxGeometry width="50" height="50" relative="1" as="geometry">
            <mxPoint x="691.7889321881345" y="321" as="sourcePoint" />
            <mxPoint x="645.86" y="353.92893218813447" as="targetPoint" />
          </mxGeometry>
        </mxCell>
        <mxCell id="ypLOqI9C_wn-hdyB5M15-52" value="" style="ellipse;whiteSpace=wrap;html=1;aspect=fixed;" vertex="1" parent="1">
          <mxGeometry x="688.7889321881345" y="301" width="20" height="20" as="geometry" />
        </mxCell>
        <mxCell id="ypLOqI9C_wn-hdyB5M15-59" value="" style="group" vertex="1" connectable="0" parent="1">
          <mxGeometry x="520" y="506.86" width="60" height="60" as="geometry" />
        </mxCell>
        <mxCell id="ypLOqI9C_wn-hdyB5M15-60" value="" style="ellipse;whiteSpace=wrap;html=1;aspect=fixed;container=0;" vertex="1" parent="ypLOqI9C_wn-hdyB5M15-59">
          <mxGeometry x="20" width="20" height="20" as="geometry" />
        </mxCell>
        <mxCell id="ypLOqI9C_wn-hdyB5M15-61" value="3" style="ellipse;whiteSpace=wrap;html=1;aspect=fixed;container=0;fillColor=#ffe6cc;strokeColor=#d79b00;" vertex="1" parent="ypLOqI9C_wn-hdyB5M15-59">
          <mxGeometry y="43.14" width="20" height="20" as="geometry" />
        </mxCell>
        <mxCell id="ypLOqI9C_wn-hdyB5M15-62" value="2" style="ellipse;whiteSpace=wrap;html=1;aspect=fixed;container=0;" vertex="1" parent="ypLOqI9C_wn-hdyB5M15-59">
          <mxGeometry x="45" y="43.14" width="20" height="20" as="geometry" />
        </mxCell>
        <mxCell id="ypLOqI9C_wn-hdyB5M15-63" value="" style="endArrow=classic;html=1;rounded=0;entryX=0.5;entryY=0;entryDx=0;entryDy=0;exitX=0;exitY=1;exitDx=0;exitDy=0;" edge="1" parent="ypLOqI9C_wn-hdyB5M15-59" source="ypLOqI9C_wn-hdyB5M15-60" target="ypLOqI9C_wn-hdyB5M15-61">
          <mxGeometry width="50" height="50" relative="1" as="geometry">
            <mxPoint x="20" y="10" as="sourcePoint" />
            <mxPoint x="140" y="223" as="targetPoint" />
          </mxGeometry>
        </mxCell>
        <mxCell id="ypLOqI9C_wn-hdyB5M15-64" value="" style="endArrow=classic;html=1;rounded=0;entryX=0.5;entryY=0;entryDx=0;entryDy=0;exitX=1;exitY=1;exitDx=0;exitDy=0;" edge="1" parent="ypLOqI9C_wn-hdyB5M15-59" source="ypLOqI9C_wn-hdyB5M15-60" target="ypLOqI9C_wn-hdyB5M15-62">
          <mxGeometry width="50" height="50" relative="1" as="geometry">
            <mxPoint x="41" y="12" as="sourcePoint" />
            <mxPoint x="70" y="83" as="targetPoint" />
          </mxGeometry>
        </mxCell>
        <mxCell id="ypLOqI9C_wn-hdyB5M15-65" value="" style="group" vertex="1" connectable="0" parent="1">
          <mxGeometry x="590" y="456.86" width="60" height="60" as="geometry" />
        </mxCell>
        <mxCell id="ypLOqI9C_wn-hdyB5M15-66" value="" style="ellipse;whiteSpace=wrap;html=1;aspect=fixed;container=0;" vertex="1" parent="ypLOqI9C_wn-hdyB5M15-65">
          <mxGeometry x="20" width="20" height="20" as="geometry" />
        </mxCell>
        <mxCell id="ypLOqI9C_wn-hdyB5M15-67" value="3" style="ellipse;whiteSpace=wrap;html=1;aspect=fixed;container=0;" vertex="1" parent="ypLOqI9C_wn-hdyB5M15-65">
          <mxGeometry y="40" width="20" height="20" as="geometry" />
        </mxCell>
        <mxCell id="ypLOqI9C_wn-hdyB5M15-68" value="3" style="ellipse;whiteSpace=wrap;html=1;aspect=fixed;container=0;" vertex="1" parent="ypLOqI9C_wn-hdyB5M15-65">
          <mxGeometry x="40" y="40" width="20" height="20" as="geometry" />
        </mxCell>
        <mxCell id="ypLOqI9C_wn-hdyB5M15-69" value="" style="endArrow=classic;html=1;rounded=0;entryX=0.5;entryY=0;entryDx=0;entryDy=0;exitX=0;exitY=1;exitDx=0;exitDy=0;" edge="1" parent="ypLOqI9C_wn-hdyB5M15-65" source="ypLOqI9C_wn-hdyB5M15-66" target="ypLOqI9C_wn-hdyB5M15-67">
          <mxGeometry width="50" height="50" relative="1" as="geometry">
            <mxPoint x="20" y="10" as="sourcePoint" />
            <mxPoint x="140" y="223" as="targetPoint" />
          </mxGeometry>
        </mxCell>
        <mxCell id="ypLOqI9C_wn-hdyB5M15-70" value="" style="endArrow=classic;html=1;rounded=0;entryX=0.5;entryY=0;entryDx=0;entryDy=0;exitX=1;exitY=1;exitDx=0;exitDy=0;" edge="1" parent="ypLOqI9C_wn-hdyB5M15-65" source="ypLOqI9C_wn-hdyB5M15-66" target="ypLOqI9C_wn-hdyB5M15-68">
          <mxGeometry width="50" height="50" relative="1" as="geometry">
            <mxPoint x="41" y="12" as="sourcePoint" />
            <mxPoint x="70" y="83" as="targetPoint" />
          </mxGeometry>
        </mxCell>
        <mxCell id="ypLOqI9C_wn-hdyB5M15-71" value="" style="group" vertex="1" connectable="0" parent="1">
          <mxGeometry x="650" y="406.86" width="60" height="60" as="geometry" />
        </mxCell>
        <mxCell id="ypLOqI9C_wn-hdyB5M15-72" value="" style="ellipse;whiteSpace=wrap;html=1;aspect=fixed;container=0;" vertex="1" parent="ypLOqI9C_wn-hdyB5M15-71">
          <mxGeometry x="20" width="20" height="20" as="geometry" />
        </mxCell>
        <mxCell id="ypLOqI9C_wn-hdyB5M15-73" value="4" style="ellipse;whiteSpace=wrap;html=1;aspect=fixed;container=0;" vertex="1" parent="ypLOqI9C_wn-hdyB5M15-71">
          <mxGeometry y="40" width="20" height="20" as="geometry" />
        </mxCell>
        <mxCell id="ypLOqI9C_wn-hdyB5M15-74" value="4" style="ellipse;whiteSpace=wrap;html=1;aspect=fixed;container=0;" vertex="1" parent="ypLOqI9C_wn-hdyB5M15-71">
          <mxGeometry x="40" y="40" width="20" height="20" as="geometry" />
        </mxCell>
        <mxCell id="ypLOqI9C_wn-hdyB5M15-75" value="" style="endArrow=classic;html=1;rounded=0;entryX=0.5;entryY=0;entryDx=0;entryDy=0;exitX=0;exitY=1;exitDx=0;exitDy=0;" edge="1" parent="ypLOqI9C_wn-hdyB5M15-71" source="ypLOqI9C_wn-hdyB5M15-72" target="ypLOqI9C_wn-hdyB5M15-73">
          <mxGeometry width="50" height="50" relative="1" as="geometry">
            <mxPoint x="20" y="10" as="sourcePoint" />
            <mxPoint x="140" y="223" as="targetPoint" />
          </mxGeometry>
        </mxCell>
        <mxCell id="ypLOqI9C_wn-hdyB5M15-76" value="" style="endArrow=classic;html=1;rounded=0;entryX=0.5;entryY=0;entryDx=0;entryDy=0;exitX=1;exitY=1;exitDx=0;exitDy=0;" edge="1" parent="ypLOqI9C_wn-hdyB5M15-71" source="ypLOqI9C_wn-hdyB5M15-72" target="ypLOqI9C_wn-hdyB5M15-74">
          <mxGeometry width="50" height="50" relative="1" as="geometry">
            <mxPoint x="41" y="12" as="sourcePoint" />
            <mxPoint x="70" y="83" as="targetPoint" />
          </mxGeometry>
        </mxCell>
        <mxCell id="ypLOqI9C_wn-hdyB5M15-77" value="" style="group" vertex="1" connectable="0" parent="1">
          <mxGeometry x="720" y="346.86" width="60" height="60" as="geometry" />
        </mxCell>
        <mxCell id="ypLOqI9C_wn-hdyB5M15-78" value="" style="ellipse;whiteSpace=wrap;html=1;aspect=fixed;container=0;" vertex="1" parent="ypLOqI9C_wn-hdyB5M15-77">
          <mxGeometry x="20" width="20" height="20" as="geometry" />
        </mxCell>
        <mxCell id="ypLOqI9C_wn-hdyB5M15-79" value="5" style="ellipse;whiteSpace=wrap;html=1;aspect=fixed;container=0;" vertex="1" parent="ypLOqI9C_wn-hdyB5M15-77">
          <mxGeometry y="40" width="20" height="20" as="geometry" />
        </mxCell>
        <mxCell id="ypLOqI9C_wn-hdyB5M15-80" value="5" style="ellipse;whiteSpace=wrap;html=1;aspect=fixed;container=0;" vertex="1" parent="ypLOqI9C_wn-hdyB5M15-77">
          <mxGeometry x="40" y="40" width="20" height="20" as="geometry" />
        </mxCell>
        <mxCell id="ypLOqI9C_wn-hdyB5M15-81" value="" style="endArrow=classic;html=1;rounded=0;entryX=0.5;entryY=0;entryDx=0;entryDy=0;exitX=0;exitY=1;exitDx=0;exitDy=0;" edge="1" parent="ypLOqI9C_wn-hdyB5M15-77" source="ypLOqI9C_wn-hdyB5M15-78" target="ypLOqI9C_wn-hdyB5M15-79">
          <mxGeometry width="50" height="50" relative="1" as="geometry">
            <mxPoint x="20" y="10" as="sourcePoint" />
            <mxPoint x="140" y="223" as="targetPoint" />
          </mxGeometry>
        </mxCell>
        <mxCell id="ypLOqI9C_wn-hdyB5M15-82" value="" style="endArrow=classic;html=1;rounded=0;entryX=0.5;entryY=0;entryDx=0;entryDy=0;exitX=1;exitY=1;exitDx=0;exitDy=0;" edge="1" parent="ypLOqI9C_wn-hdyB5M15-77" source="ypLOqI9C_wn-hdyB5M15-78" target="ypLOqI9C_wn-hdyB5M15-80">
          <mxGeometry width="50" height="50" relative="1" as="geometry">
            <mxPoint x="41" y="12" as="sourcePoint" />
            <mxPoint x="70" y="83" as="targetPoint" />
          </mxGeometry>
        </mxCell>
        <mxCell id="ypLOqI9C_wn-hdyB5M15-83" value="" style="endArrow=classic;html=1;rounded=0;exitX=1;exitY=1;exitDx=0;exitDy=0;entryX=0;entryY=0;entryDx=0;entryDy=0;" edge="1" parent="1" source="ypLOqI9C_wn-hdyB5M15-46" target="ypLOqI9C_wn-hdyB5M15-60">
          <mxGeometry width="50" height="50" relative="1" as="geometry">
            <mxPoint x="610" y="606.86" as="sourcePoint" />
            <mxPoint x="660" y="556.86" as="targetPoint" />
          </mxGeometry>
        </mxCell>
        <mxCell id="ypLOqI9C_wn-hdyB5M15-84" value="" style="endArrow=classic;html=1;rounded=0;exitX=1;exitY=1;exitDx=0;exitDy=0;entryX=0;entryY=0;entryDx=0;entryDy=0;" edge="1" parent="1" source="ypLOqI9C_wn-hdyB5M15-48" target="ypLOqI9C_wn-hdyB5M15-66">
          <mxGeometry width="50" height="50" relative="1" as="geometry">
            <mxPoint x="540" y="496.86" as="sourcePoint" />
            <mxPoint x="590" y="446.86" as="targetPoint" />
          </mxGeometry>
        </mxCell>
        <mxCell id="ypLOqI9C_wn-hdyB5M15-85" value="" style="endArrow=classic;html=1;rounded=0;exitX=1;exitY=1;exitDx=0;exitDy=0;entryX=0;entryY=0;entryDx=0;entryDy=0;" edge="1" parent="1" source="ypLOqI9C_wn-hdyB5M15-50" target="ypLOqI9C_wn-hdyB5M15-72">
          <mxGeometry width="50" height="50" relative="1" as="geometry">
            <mxPoint x="640" y="416.86" as="sourcePoint" />
            <mxPoint x="673" y="452.86" as="targetPoint" />
          </mxGeometry>
        </mxCell>
        <mxCell id="ypLOqI9C_wn-hdyB5M15-86" value="" style="endArrow=classic;html=1;rounded=0;exitX=1;exitY=1;exitDx=0;exitDy=0;entryX=0;entryY=0;entryDx=0;entryDy=0;" edge="1" parent="1" source="ypLOqI9C_wn-hdyB5M15-52" target="ypLOqI9C_wn-hdyB5M15-78">
          <mxGeometry width="50" height="50" relative="1" as="geometry">
            <mxPoint x="700" y="376.86" as="sourcePoint" />
            <mxPoint x="730" y="415.86" as="targetPoint" />
          </mxGeometry>
        </mxCell>
        <mxCell id="ypLOqI9C_wn-hdyB5M15-88" value="" style="endArrow=classic;html=1;rounded=0;exitX=0;exitY=1;exitDx=0;exitDy=0;entryX=1;entryY=0;entryDx=0;entryDy=0;" edge="1" parent="1" source="ypLOqI9C_wn-hdyB5M15-89">
          <mxGeometry width="50" height="50" relative="1" as="geometry">
            <mxPoint x="873" y="476.86" as="sourcePoint" />
            <mxPoint x="827.0710678118655" y="509.7889321881345" as="targetPoint" />
          </mxGeometry>
        </mxCell>
        <mxCell id="ypLOqI9C_wn-hdyB5M15-89" value="" style="ellipse;whiteSpace=wrap;html=1;aspect=fixed;" vertex="1" parent="1">
          <mxGeometry x="870" y="456.86" width="20" height="20" as="geometry" />
        </mxCell>
        <mxCell id="ypLOqI9C_wn-hdyB5M15-90" value="" style="endArrow=classic;html=1;rounded=0;exitX=0;exitY=1;exitDx=0;exitDy=0;entryX=1;entryY=0;entryDx=0;entryDy=0;" edge="1" parent="1" source="ypLOqI9C_wn-hdyB5M15-91" target="ypLOqI9C_wn-hdyB5M15-89">
          <mxGeometry width="50" height="50" relative="1" as="geometry">
            <mxPoint x="935.9289321881345" y="426.86" as="sourcePoint" />
            <mxPoint x="890" y="459.7889321881345" as="targetPoint" />
          </mxGeometry>
        </mxCell>
        <mxCell id="ypLOqI9C_wn-hdyB5M15-91" value="" style="ellipse;whiteSpace=wrap;html=1;aspect=fixed;" vertex="1" parent="1">
          <mxGeometry x="932.9289321881345" y="406.86" width="20" height="20" as="geometry" />
        </mxCell>
        <mxCell id="ypLOqI9C_wn-hdyB5M15-92" value="" style="endArrow=classic;html=1;rounded=0;exitX=0;exitY=1;exitDx=0;exitDy=0;entryX=1;entryY=0;entryDx=0;entryDy=0;" edge="1" parent="1" source="ypLOqI9C_wn-hdyB5M15-93" target="ypLOqI9C_wn-hdyB5M15-91">
          <mxGeometry width="50" height="50" relative="1" as="geometry">
            <mxPoint x="998.8589321881345" y="373.93000000000006" as="sourcePoint" />
            <mxPoint x="952.9300000000001" y="406.85893218813453" as="targetPoint" />
          </mxGeometry>
        </mxCell>
        <mxCell id="ypLOqI9C_wn-hdyB5M15-93" value="" style="ellipse;whiteSpace=wrap;html=1;aspect=fixed;" vertex="1" parent="1">
          <mxGeometry x="995.8589321881345" y="353.93000000000006" width="20" height="20" as="geometry" />
        </mxCell>
        <mxCell id="ypLOqI9C_wn-hdyB5M15-94" value="" style="endArrow=classic;html=1;rounded=0;exitX=0;exitY=1;exitDx=0;exitDy=0;entryX=1;entryY=0;entryDx=0;entryDy=0;" edge="1" parent="1" source="ypLOqI9C_wn-hdyB5M15-95" target="ypLOqI9C_wn-hdyB5M15-93">
          <mxGeometry width="50" height="50" relative="1" as="geometry">
            <mxPoint x="1061.7889321881344" y="321" as="sourcePoint" />
            <mxPoint x="1015.8600000000001" y="353.92893218813447" as="targetPoint" />
          </mxGeometry>
        </mxCell>
        <mxCell id="ypLOqI9C_wn-hdyB5M15-95" value="" style="ellipse;whiteSpace=wrap;html=1;aspect=fixed;" vertex="1" parent="1">
          <mxGeometry x="1058.7889321881344" y="301" width="20" height="20" as="geometry" />
        </mxCell>
        <mxCell id="ypLOqI9C_wn-hdyB5M15-96" value="" style="group" vertex="1" connectable="0" parent="1">
          <mxGeometry x="800" y="506.86" width="60" height="60" as="geometry" />
        </mxCell>
        <mxCell id="ypLOqI9C_wn-hdyB5M15-97" value="3" style="ellipse;whiteSpace=wrap;html=1;aspect=fixed;container=0;fillColor=#ffe6cc;strokeColor=#d79b00;" vertex="1" parent="ypLOqI9C_wn-hdyB5M15-96">
          <mxGeometry x="10" width="20" height="20" as="geometry" />
        </mxCell>
        <mxCell id="ypLOqI9C_wn-hdyB5M15-98" value="" style="group" vertex="1" connectable="0" parent="1">
          <mxGeometry x="900" y="486.86" width="100" height="220" as="geometry" />
        </mxCell>
        <mxCell id="ypLOqI9C_wn-hdyB5M15-99" value="0" style="ellipse;whiteSpace=wrap;html=1;aspect=fixed;container=0;fillColor=#ffe6cc;strokeColor=#d79b00;" vertex="1" parent="ypLOqI9C_wn-hdyB5M15-98">
          <mxGeometry x="10" y="20" width="20" height="20" as="geometry" />
        </mxCell>
        <mxCell id="ypLOqI9C_wn-hdyB5M15-131" value="" style="shape=curlyBracket;whiteSpace=wrap;html=1;rounded=1;labelPosition=left;verticalLabelPosition=middle;align=right;verticalAlign=middle;rotation=-90;" vertex="1" parent="ypLOqI9C_wn-hdyB5M15-98">
          <mxGeometry x="70" y="-66.86" width="20" height="340" as="geometry" />
        </mxCell>
        <mxCell id="ypLOqI9C_wn-hdyB5M15-144" value="3" style="ellipse;whiteSpace=wrap;html=1;aspect=fixed;container=0;fillColor=#f5f5f5;strokeColor=#666666;fontColor=#333333;dashed=1;dashPattern=1 2;" vertex="1" parent="ypLOqI9C_wn-hdyB5M15-98">
          <mxGeometry x="-10" y="63.139999999999986" width="20" height="20" as="geometry" />
        </mxCell>
        <mxCell id="ypLOqI9C_wn-hdyB5M15-145" value="" style="endArrow=classic;html=1;rounded=0;exitX=0;exitY=1;exitDx=0;exitDy=0;strokeColor=#666666;dashed=1;dashPattern=1 1;" edge="1" parent="ypLOqI9C_wn-hdyB5M15-98" source="ypLOqI9C_wn-hdyB5M15-99">
          <mxGeometry width="50" height="50" relative="1" as="geometry">
            <mxPoint x="-17" y="37" as="sourcePoint" />
            <mxPoint y="63.139999999999986" as="targetPoint" />
          </mxGeometry>
        </mxCell>
        <mxCell id="ypLOqI9C_wn-hdyB5M15-146" value="2" style="ellipse;whiteSpace=wrap;html=1;aspect=fixed;container=0;fillColor=#f5f5f5;strokeColor=#666666;fontColor=#333333;dashed=1;dashPattern=1 2;" vertex="1" parent="ypLOqI9C_wn-hdyB5M15-98">
          <mxGeometry x="30" y="63.139999999999986" width="20" height="20" as="geometry" />
        </mxCell>
        <mxCell id="ypLOqI9C_wn-hdyB5M15-147" value="" style="endArrow=classic;html=1;rounded=0;exitX=1;exitY=1;exitDx=0;exitDy=0;strokeColor=#666666;dashed=1;dashPattern=1 1;" edge="1" parent="ypLOqI9C_wn-hdyB5M15-98" source="ypLOqI9C_wn-hdyB5M15-99" target="ypLOqI9C_wn-hdyB5M15-146">
          <mxGeometry width="50" height="50" relative="1" as="geometry">
            <mxPoint x="33" y="53.139999999999986" as="sourcePoint" />
            <mxPoint x="20" y="79.27999999999997" as="targetPoint" />
          </mxGeometry>
        </mxCell>
        <mxCell id="ypLOqI9C_wn-hdyB5M15-104" value="" style="group" vertex="1" connectable="0" parent="1">
          <mxGeometry x="960" y="456.86" width="60" height="60" as="geometry" />
        </mxCell>
        <mxCell id="ypLOqI9C_wn-hdyB5M15-105" value="" style="ellipse;whiteSpace=wrap;html=1;aspect=fixed;container=0;" vertex="1" parent="ypLOqI9C_wn-hdyB5M15-104">
          <mxGeometry x="20" width="20" height="20" as="geometry" />
        </mxCell>
        <mxCell id="ypLOqI9C_wn-hdyB5M15-106" value="5" style="ellipse;whiteSpace=wrap;html=1;aspect=fixed;container=0;fillColor=#ffe6cc;strokeColor=#d79b00;" vertex="1" parent="ypLOqI9C_wn-hdyB5M15-104">
          <mxGeometry y="40" width="20" height="20" as="geometry" />
        </mxCell>
        <mxCell id="ypLOqI9C_wn-hdyB5M15-107" value="3" style="ellipse;whiteSpace=wrap;html=1;aspect=fixed;container=0;" vertex="1" parent="ypLOqI9C_wn-hdyB5M15-104">
          <mxGeometry x="40" y="40" width="20" height="20" as="geometry" />
        </mxCell>
        <mxCell id="ypLOqI9C_wn-hdyB5M15-108" value="" style="endArrow=classic;html=1;rounded=0;entryX=0.5;entryY=0;entryDx=0;entryDy=0;exitX=0;exitY=1;exitDx=0;exitDy=0;" edge="1" parent="ypLOqI9C_wn-hdyB5M15-104" source="ypLOqI9C_wn-hdyB5M15-105" target="ypLOqI9C_wn-hdyB5M15-106">
          <mxGeometry width="50" height="50" relative="1" as="geometry">
            <mxPoint x="20" y="10" as="sourcePoint" />
            <mxPoint x="140" y="223" as="targetPoint" />
          </mxGeometry>
        </mxCell>
        <mxCell id="ypLOqI9C_wn-hdyB5M15-109" value="" style="endArrow=classic;html=1;rounded=0;entryX=0.5;entryY=0;entryDx=0;entryDy=0;exitX=1;exitY=1;exitDx=0;exitDy=0;" edge="1" parent="ypLOqI9C_wn-hdyB5M15-104" source="ypLOqI9C_wn-hdyB5M15-105" target="ypLOqI9C_wn-hdyB5M15-107">
          <mxGeometry width="50" height="50" relative="1" as="geometry">
            <mxPoint x="41" y="12" as="sourcePoint" />
            <mxPoint x="70" y="83" as="targetPoint" />
          </mxGeometry>
        </mxCell>
        <mxCell id="ypLOqI9C_wn-hdyB5M15-110" value="" style="group" vertex="1" connectable="0" parent="1">
          <mxGeometry x="1020" y="406.86" width="60" height="60" as="geometry" />
        </mxCell>
        <mxCell id="ypLOqI9C_wn-hdyB5M15-111" value="" style="ellipse;whiteSpace=wrap;html=1;aspect=fixed;container=0;" vertex="1" parent="ypLOqI9C_wn-hdyB5M15-110">
          <mxGeometry x="20" width="20" height="20" as="geometry" />
        </mxCell>
        <mxCell id="ypLOqI9C_wn-hdyB5M15-112" value="4" style="ellipse;whiteSpace=wrap;html=1;aspect=fixed;container=0;" vertex="1" parent="ypLOqI9C_wn-hdyB5M15-110">
          <mxGeometry y="40" width="20" height="20" as="geometry" />
        </mxCell>
        <mxCell id="ypLOqI9C_wn-hdyB5M15-113" value="4" style="ellipse;whiteSpace=wrap;html=1;aspect=fixed;container=0;" vertex="1" parent="ypLOqI9C_wn-hdyB5M15-110">
          <mxGeometry x="40" y="40" width="20" height="20" as="geometry" />
        </mxCell>
        <mxCell id="ypLOqI9C_wn-hdyB5M15-114" value="" style="endArrow=classic;html=1;rounded=0;entryX=0.5;entryY=0;entryDx=0;entryDy=0;exitX=0;exitY=1;exitDx=0;exitDy=0;" edge="1" parent="ypLOqI9C_wn-hdyB5M15-110" source="ypLOqI9C_wn-hdyB5M15-111" target="ypLOqI9C_wn-hdyB5M15-112">
          <mxGeometry width="50" height="50" relative="1" as="geometry">
            <mxPoint x="20" y="10" as="sourcePoint" />
            <mxPoint x="140" y="223" as="targetPoint" />
          </mxGeometry>
        </mxCell>
        <mxCell id="ypLOqI9C_wn-hdyB5M15-115" value="" style="endArrow=classic;html=1;rounded=0;entryX=0.5;entryY=0;entryDx=0;entryDy=0;exitX=1;exitY=1;exitDx=0;exitDy=0;" edge="1" parent="ypLOqI9C_wn-hdyB5M15-110" source="ypLOqI9C_wn-hdyB5M15-111" target="ypLOqI9C_wn-hdyB5M15-113">
          <mxGeometry width="50" height="50" relative="1" as="geometry">
            <mxPoint x="41" y="12" as="sourcePoint" />
            <mxPoint x="70" y="83" as="targetPoint" />
          </mxGeometry>
        </mxCell>
        <mxCell id="ypLOqI9C_wn-hdyB5M15-116" value="" style="group" vertex="1" connectable="0" parent="1">
          <mxGeometry x="1090" y="346.86" width="60" height="60" as="geometry" />
        </mxCell>
        <mxCell id="ypLOqI9C_wn-hdyB5M15-117" value="" style="ellipse;whiteSpace=wrap;html=1;aspect=fixed;container=0;" vertex="1" parent="ypLOqI9C_wn-hdyB5M15-116">
          <mxGeometry x="20" width="20" height="20" as="geometry" />
        </mxCell>
        <mxCell id="ypLOqI9C_wn-hdyB5M15-118" value="5" style="ellipse;whiteSpace=wrap;html=1;aspect=fixed;container=0;" vertex="1" parent="ypLOqI9C_wn-hdyB5M15-116">
          <mxGeometry y="40" width="20" height="20" as="geometry" />
        </mxCell>
        <mxCell id="ypLOqI9C_wn-hdyB5M15-119" value="5" style="ellipse;whiteSpace=wrap;html=1;aspect=fixed;container=0;" vertex="1" parent="ypLOqI9C_wn-hdyB5M15-116">
          <mxGeometry x="40" y="40" width="20" height="20" as="geometry" />
        </mxCell>
        <mxCell id="ypLOqI9C_wn-hdyB5M15-120" value="" style="endArrow=classic;html=1;rounded=0;entryX=0.5;entryY=0;entryDx=0;entryDy=0;exitX=0;exitY=1;exitDx=0;exitDy=0;" edge="1" parent="ypLOqI9C_wn-hdyB5M15-116" source="ypLOqI9C_wn-hdyB5M15-117" target="ypLOqI9C_wn-hdyB5M15-118">
          <mxGeometry width="50" height="50" relative="1" as="geometry">
            <mxPoint x="20" y="10" as="sourcePoint" />
            <mxPoint x="140" y="223" as="targetPoint" />
          </mxGeometry>
        </mxCell>
        <mxCell id="ypLOqI9C_wn-hdyB5M15-121" value="" style="endArrow=classic;html=1;rounded=0;entryX=0.5;entryY=0;entryDx=0;entryDy=0;exitX=1;exitY=1;exitDx=0;exitDy=0;" edge="1" parent="ypLOqI9C_wn-hdyB5M15-116" source="ypLOqI9C_wn-hdyB5M15-117" target="ypLOqI9C_wn-hdyB5M15-119">
          <mxGeometry width="50" height="50" relative="1" as="geometry">
            <mxPoint x="41" y="12" as="sourcePoint" />
            <mxPoint x="70" y="83" as="targetPoint" />
          </mxGeometry>
        </mxCell>
        <mxCell id="ypLOqI9C_wn-hdyB5M15-122" value="" style="endArrow=classic;html=1;rounded=0;exitX=1;exitY=1;exitDx=0;exitDy=0;entryX=0;entryY=0;entryDx=0;entryDy=0;" edge="1" parent="1" source="ypLOqI9C_wn-hdyB5M15-89" target="ypLOqI9C_wn-hdyB5M15-99">
          <mxGeometry width="50" height="50" relative="1" as="geometry">
            <mxPoint x="980" y="606.86" as="sourcePoint" />
            <mxPoint x="1030" y="556.86" as="targetPoint" />
          </mxGeometry>
        </mxCell>
        <mxCell id="ypLOqI9C_wn-hdyB5M15-123" value="" style="endArrow=classic;html=1;rounded=0;exitX=1;exitY=1;exitDx=0;exitDy=0;entryX=0;entryY=0;entryDx=0;entryDy=0;" edge="1" parent="1" source="ypLOqI9C_wn-hdyB5M15-91" target="ypLOqI9C_wn-hdyB5M15-105">
          <mxGeometry width="50" height="50" relative="1" as="geometry">
            <mxPoint x="910" y="496.86" as="sourcePoint" />
            <mxPoint x="960" y="446.86" as="targetPoint" />
          </mxGeometry>
        </mxCell>
        <mxCell id="ypLOqI9C_wn-hdyB5M15-124" value="" style="endArrow=classic;html=1;rounded=0;exitX=1;exitY=1;exitDx=0;exitDy=0;entryX=0;entryY=0;entryDx=0;entryDy=0;" edge="1" parent="1" source="ypLOqI9C_wn-hdyB5M15-93" target="ypLOqI9C_wn-hdyB5M15-111">
          <mxGeometry width="50" height="50" relative="1" as="geometry">
            <mxPoint x="1010" y="416.86" as="sourcePoint" />
            <mxPoint x="1043" y="452.86" as="targetPoint" />
          </mxGeometry>
        </mxCell>
        <mxCell id="ypLOqI9C_wn-hdyB5M15-125" value="" style="endArrow=classic;html=1;rounded=0;exitX=1;exitY=1;exitDx=0;exitDy=0;entryX=0;entryY=0;entryDx=0;entryDy=0;" edge="1" parent="1" source="ypLOqI9C_wn-hdyB5M15-95" target="ypLOqI9C_wn-hdyB5M15-117">
          <mxGeometry width="50" height="50" relative="1" as="geometry">
            <mxPoint x="1070" y="376.86" as="sourcePoint" />
            <mxPoint x="1100" y="415.86" as="targetPoint" />
          </mxGeometry>
        </mxCell>
        <mxCell id="ypLOqI9C_wn-hdyB5M15-126" value="&lt;code&gt;[[[[3,0],[5,3]],[4,4]],[5,5]]&lt;/code&gt;" style="text;html=1;align=center;verticalAlign=middle;whiteSpace=wrap;rounded=0;" vertex="1" parent="1">
          <mxGeometry x="850" y="613.14" width="270" height="20" as="geometry" />
        </mxCell>
        <mxCell id="ypLOqI9C_wn-hdyB5M15-127" value="" style="shape=flexArrow;endArrow=classic;html=1;rounded=0;fillColor=#f5f5f5;strokeColor=#666666;" edge="1" parent="1">
          <mxGeometry width="50" height="50" relative="1" as="geometry">
            <mxPoint x="435" y="300.75" as="sourcePoint" />
            <mxPoint x="465" y="300.75" as="targetPoint" />
          </mxGeometry>
        </mxCell>
        <mxCell id="ypLOqI9C_wn-hdyB5M15-128" value="" style="shape=flexArrow;endArrow=classic;html=1;rounded=0;fillColor=#f5f5f5;strokeColor=#666666;" edge="1" parent="1">
          <mxGeometry width="50" height="50" relative="1" as="geometry">
            <mxPoint x="800" y="301" as="sourcePoint" />
            <mxPoint x="830" y="301" as="targetPoint" />
          </mxGeometry>
        </mxCell>
        <mxCell id="ypLOqI9C_wn-hdyB5M15-129" value="Explore 1st leftmost &lt;br&gt;pair (at depth &amp;gt;= 4)" style="text;html=1;align=center;verticalAlign=middle;whiteSpace=wrap;rounded=0;" vertex="1" parent="1">
          <mxGeometry x="340" y="240" width="230" height="30" as="geometry" />
        </mxCell>
        <mxCell id="ypLOqI9C_wn-hdyB5M15-130" value="Explore 1st leftmost &lt;br&gt;pair (at depth &amp;gt;= 4)" style="text;html=1;align=center;verticalAlign=middle;whiteSpace=wrap;rounded=0;" vertex="1" parent="1">
          <mxGeometry x="700" y="240" width="230" height="30" as="geometry" />
        </mxCell>
        <mxCell id="ypLOqI9C_wn-hdyB5M15-54" value="0" style="ellipse;whiteSpace=wrap;html=1;aspect=fixed;container=0;fillColor=#ffe6cc;strokeColor=#d79b00;" vertex="1" parent="1">
          <mxGeometry x="440" y="506.86" width="20" height="20" as="geometry" />
        </mxCell>
        <mxCell id="ypLOqI9C_wn-hdyB5M15-138" value="" style="endArrow=classic;html=1;rounded=0;entryX=0.5;entryY=0;entryDx=0;entryDy=0;exitX=0.688;exitY=0.932;exitDx=0;exitDy=0;dashed=1;dashPattern=1 2;exitPerimeter=0;strokeColor=#808080;" edge="1" parent="1" target="ypLOqI9C_wn-hdyB5M15-137" source="ypLOqI9C_wn-hdyB5M15-54">
          <mxGeometry width="50" height="50" relative="1" as="geometry">
            <mxPoint x="450" y="530" as="sourcePoint" />
            <mxPoint x="483" y="596" as="targetPoint" />
          </mxGeometry>
        </mxCell>
        <mxCell id="ypLOqI9C_wn-hdyB5M15-137" value="1" style="ellipse;whiteSpace=wrap;html=1;aspect=fixed;container=0;dashed=1;dashPattern=1 1;fillColor=#f5f5f5;fontColor=#333333;strokeColor=#666666;" vertex="1" parent="1">
          <mxGeometry x="460" y="550" width="20" height="20" as="geometry" />
        </mxCell>
        <mxCell id="ypLOqI9C_wn-hdyB5M15-132" value="Version" parent="0" />
        <mxCell id="ypLOqI9C_wn-hdyB5M15-134" value="&lt;font face=&quot;Times New Roman&quot; style=&quot;font-size: 10px;&quot;&gt;Version:&lt;br&gt;2025-08-19a&lt;/font&gt;" style="rounded=1;whiteSpace=wrap;html=1;" vertex="1" parent="ypLOqI9C_wn-hdyB5M15-132">
          <mxGeometry x="1080" y="790" width="80" height="30" as="geometry" />
        </mxCell>
        <mxCell id="ypLOqI9C_wn-hdyB5M15-139" value="" style="endArrow=classic;html=1;rounded=0;entryX=0;entryY=0.5;entryDx=0;entryDy=0;exitX=1;exitY=0.5;exitDx=0;exitDy=0;dashed=1;dashPattern=1 1;strokeColor=#666666;" edge="1" parent="ypLOqI9C_wn-hdyB5M15-132" source="ypLOqI9C_wn-hdyB5M15-137" target="ypLOqI9C_wn-hdyB5M15-61">
          <mxGeometry width="50" height="50" relative="1" as="geometry">
            <mxPoint x="480" y="560" as="sourcePoint" />
            <mxPoint x="710" y="640" as="targetPoint" />
          </mxGeometry>
        </mxCell>
        <mxCell id="ypLOqI9C_wn-hdyB5M15-140" value="&lt;font style=&quot;font-size: 14px;&quot;&gt;+&lt;/font&gt;" style="edgeLabel;html=1;align=center;verticalAlign=middle;resizable=0;points=[];fontColor=#666666;" vertex="1" connectable="0" parent="ypLOqI9C_wn-hdyB5M15-139">
          <mxGeometry x="0.0694" y="2" relative="1" as="geometry">
            <mxPoint x="-3" y="-13" as="offset" />
          </mxGeometry>
        </mxCell>
        <mxCell id="ypLOqI9C_wn-hdyB5M15-142" value="1" style="ellipse;whiteSpace=wrap;html=1;aspect=fixed;container=0;dashed=1;dashPattern=1 1;fillColor=#f5f5f5;fontColor=#333333;strokeColor=#666666;" vertex="1" parent="ypLOqI9C_wn-hdyB5M15-132">
          <mxGeometry x="420" y="550" width="20" height="20" as="geometry" />
        </mxCell>
        <mxCell id="ypLOqI9C_wn-hdyB5M15-143" value="" style="endArrow=classic;html=1;rounded=0;entryX=0.625;entryY=0.025;entryDx=0;entryDy=0;dashed=1;dashPattern=1 2;strokeColor=#808080;entryPerimeter=0;exitX=0.275;exitY=0.957;exitDx=0;exitDy=0;exitPerimeter=0;" edge="1" parent="ypLOqI9C_wn-hdyB5M15-132" source="ypLOqI9C_wn-hdyB5M15-54" target="ypLOqI9C_wn-hdyB5M15-142">
          <mxGeometry width="50" height="50" relative="1" as="geometry">
            <mxPoint x="430" y="530" as="sourcePoint" />
            <mxPoint x="469" y="564" as="targetPoint" />
          </mxGeometry>
        </mxCell>
        <mxCell id="ypLOqI9C_wn-hdyB5M15-148" value="" style="endArrow=classic;html=1;rounded=0;entryX=0.5;entryY=1;entryDx=0;entryDy=0;exitX=1;exitY=0;exitDx=0;exitDy=0;dashed=1;dashPattern=1 1;strokeColor=#666666;" edge="1" parent="ypLOqI9C_wn-hdyB5M15-132" source="ypLOqI9C_wn-hdyB5M15-146" target="ypLOqI9C_wn-hdyB5M15-106">
          <mxGeometry width="50" height="50" relative="1" as="geometry">
            <mxPoint x="1000" y="550" as="sourcePoint" />
            <mxPoint x="1040" y="550" as="targetPoint" />
          </mxGeometry>
        </mxCell>
        <mxCell id="ypLOqI9C_wn-hdyB5M15-149" value="&lt;font style=&quot;font-size: 14px;&quot;&gt;+&lt;/font&gt;" style="edgeLabel;html=1;align=center;verticalAlign=middle;resizable=0;points=[];fontColor=#666666;" vertex="1" connectable="0" parent="ypLOqI9C_wn-hdyB5M15-148">
          <mxGeometry x="0.0694" y="2" relative="1" as="geometry">
            <mxPoint x="-8" y="-3" as="offset" />
          </mxGeometry>
        </mxCell>
        <mxCell id="ypLOqI9C_wn-hdyB5M15-150" value="" style="endArrow=classic;html=1;rounded=0;entryX=1;entryY=1;entryDx=0;entryDy=0;exitX=0.113;exitY=0.288;exitDx=0;exitDy=0;dashed=1;dashPattern=1 1;strokeColor=#666666;exitPerimeter=0;" edge="1" parent="ypLOqI9C_wn-hdyB5M15-132" source="ypLOqI9C_wn-hdyB5M15-144" target="ypLOqI9C_wn-hdyB5M15-97">
          <mxGeometry width="50" height="50" relative="1" as="geometry">
            <mxPoint x="970" y="566" as="sourcePoint" />
            <mxPoint x="993" y="530" as="targetPoint" />
          </mxGeometry>
        </mxCell>
        <mxCell id="ypLOqI9C_wn-hdyB5M15-151" value="&lt;font style=&quot;font-size: 14px;&quot;&gt;+&lt;/font&gt;" style="edgeLabel;html=1;align=center;verticalAlign=middle;resizable=0;points=[];fontColor=#666666;" vertex="1" connectable="0" parent="ypLOqI9C_wn-hdyB5M15-150">
          <mxGeometry x="0.0694" y="2" relative="1" as="geometry">
            <mxPoint x="13" y="-11" as="offset" />
          </mxGeometry>
        </mxCell>
        <mxCell id="ypLOqI9C_wn-hdyB5M15-133" value="Comments" parent="0" />
        <mxCell id="ypLOqI9C_wn-hdyB5M15-157" value="Depth" style="" parent="0" />
        <mxCell id="ypLOqI9C_wn-hdyB5M15-158" value="Depth 0" style="text;html=1;align=center;verticalAlign=middle;whiteSpace=wrap;rounded=0;" vertex="1" parent="ypLOqI9C_wn-hdyB5M15-157">
          <mxGeometry y="300" width="60" height="30" as="geometry" />
        </mxCell>
        <mxCell id="ypLOqI9C_wn-hdyB5M15-159" value="Depth 1" style="text;html=1;align=center;verticalAlign=middle;whiteSpace=wrap;rounded=0;" vertex="1" parent="ypLOqI9C_wn-hdyB5M15-157">
          <mxGeometry y="350" width="60" height="30" as="geometry" />
        </mxCell>
        <mxCell id="ypLOqI9C_wn-hdyB5M15-160" value="Depth 2" style="text;html=1;align=center;verticalAlign=middle;whiteSpace=wrap;rounded=0;" vertex="1" parent="ypLOqI9C_wn-hdyB5M15-157">
          <mxGeometry y="403.5" width="60" height="30" as="geometry" />
        </mxCell>
        <mxCell id="ypLOqI9C_wn-hdyB5M15-161" value="Depth 3" style="text;html=1;align=center;verticalAlign=middle;whiteSpace=wrap;rounded=0;" vertex="1" parent="ypLOqI9C_wn-hdyB5M15-157">
          <mxGeometry y="450" width="60" height="30" as="geometry" />
        </mxCell>
        <mxCell id="ypLOqI9C_wn-hdyB5M15-162" value="Depth 4" style="text;html=1;align=center;verticalAlign=middle;whiteSpace=wrap;rounded=0;" vertex="1" parent="ypLOqI9C_wn-hdyB5M15-157">
          <mxGeometry y="500" width="60" height="30" as="geometry" />
        </mxCell>
        <mxCell id="H3TD-TdlOyXpF-U8bNhD-1" value="Title" parent="0" />
        <mxCell id="H3TD-TdlOyXpF-U8bNhD-2" value="AOC 2021 Day 18 : SnailFish Numbers - Explode Example" style="text;strokeColor=none;fillColor=none;html=1;fontSize=24;fontStyle=5;verticalAlign=middle;align=center;" vertex="1" parent="H3TD-TdlOyXpF-U8bNhD-1">
          <mxGeometry x="180" y="100" width="700" height="40" as="geometry" />
        </mxCell>
        <mxCell id="H3TD-TdlOyXpF-U8bNhD-4" value="Explode pairs at depth &amp;gt; 3.&amp;nbsp; &amp;nbsp;Replace with value 0 and add left entry to nearest left node value (if any) &amp;amp; right entry to nearest next node right value (if any)." style="text;html=1;align=left;verticalAlign=middle;whiteSpace=wrap;rounded=0;" vertex="1" parent="H3TD-TdlOyXpF-U8bNhD-1">
          <mxGeometry x="10" y="160" width="900" height="30" as="geometry" />
        </mxCell>
      </root>
    </mxGraphModel>
  </diagram>
  <diagram id="dlTLgPs-_zqTZEWXmjM_" name="TODO">
    <mxGraphModel dx="1234" dy="822" grid="1" gridSize="10" guides="1" tooltips="1" connect="1" arrows="1" fold="1" page="1" pageScale="1" pageWidth="1169" pageHeight="827" math="0" shadow="0">
      <root>
        <mxCell id="0" />
        <mxCell id="1" parent="0" />
      </root>
    </mxGraphModel>
  </diagram>
</mxfile>
